<svg width="200" height="200" viewBox="0 0 255 255" fill="none" xmlns="http://www.w3.org/2000/svg">
<g clip-path="url(#clip0)">
<path d="M127.5 254.998C57.0341 254.998 0 197.894 0 127.5C0 57.0322 57.0244 0 127.5 0C197.968 0 254.998 57.0244 254.998 127.5C254.998 197.962 197.888 254.998 127.5 254.998Z" fill="#70EFDE"/>
<path d="M127.5 0V254.998C197.888 254.998 254.998 197.962 254.998 127.5C254.998 57.0264 197.968 0 127.5 0Z" fill="#03DAC5"/>
<path d="M127.5 157.383C90.4013 157.383 55.0283 173.6 29.1765 208.666C80.6563 270.893 175.945 270.362 226.73 207.555C214.189 195.081 185.943 157.383 127.5 157.383Z" fill="#03DAC5"/>
<path d="M226.73 207.555C202.754 237.203 166.78 254.998 127.5 254.998V157.383C185.945 157.383 214.189 195.085 226.73 207.555Z" fill="#70EFDE"/>
<path d="M127.5 134.971C102.782 134.971 82.6758 114.862 82.6758 90.1465V75.2051C82.6758 50.4895 102.782 30.3809 127.5 30.3809C152.216 30.3809 172.324 50.4895 172.324 75.2051V90.1465C172.324 114.862 152.216 134.971 127.5 134.971Z" fill="#03DAC5"/>
<path d="M127.5 30.3809V134.971C152.218 134.971 172.324 114.864 172.324 90.1465V75.2051C172.324 50.4876 152.218 30.3809 127.5 30.3809Z" fill="#70EFDE"/>
</g>
<defs>
<clipPath id="clip0">
<rect width="255" height="255" fill="white"/>
</clipPath>
</defs>
</svg>
