<svg width="55" height="54" viewBox="0 0 55 54" fill="none" xmlns="http://www.w3.org/2000/svg">
<ellipse cx="27.5" cy="27" rx="27.5" ry="27" fill="white"/>
<g clip-path="url(#clip0)">
<path d="M12.8522 16.194L17.2158 11.8267C18.3153 10.7263 20.2279 10.7242 21.3316 11.8288L40.8798 31.5699C40.9664 31.6573 41.029 31.7647 41.0631 31.8826L43.9721 42.0731C44.0446 42.3269 43.9735 42.6006 43.7867 42.7875C43.6482 42.9261 43.4628 43.0008 43.2725 43.0008C43.2057 43.0008 43.1382 42.9915 43.0729 42.973L32.8912 40.0615C32.7733 40.0274 32.666 39.9648 32.5787 39.8781L12.8522 20.3112C12.3025 19.761 11.9999 19.0302 11.9999 18.2526C11.9999 17.475 12.3025 16.7442 12.8522 16.194ZM24.5008 17.1192L21.8237 19.7963L35.8007 33.7732L36.8038 31.7664C36.9274 31.5199 37.1788 31.3644 37.4543 31.3644H38.619L24.5008 17.1192ZM42.2135 41.2145L41.2662 37.8984L38.8975 40.2671L42.2135 41.2145ZM33.818 38.8161L37.2977 39.8101L40.8092 36.2985L39.8152 32.8189H37.904L36.6505 35.326C36.5802 35.4667 36.4658 35.581 36.3252 35.6513L33.8181 36.9048V38.8161H33.818ZM32.3634 37.62V36.4553C32.3634 36.1797 32.519 35.9283 32.7654 35.8047L34.7723 34.8016L20.7954 20.8247L18.1183 23.5018L32.3634 37.62ZM13.8785 19.2998L17.0853 22.478L23.4771 16.0862L20.301 12.8816C19.7513 12.3318 18.794 12.3318 18.2442 12.8816L13.8806 17.2452C13.6058 17.52 13.4545 17.8851 13.4545 18.2736C13.4545 18.6621 13.6058 19.0271 13.8785 19.2998Z" fill="black"/>
</g>
<defs>
<clipPath id="clip0">
<rect width="32" height="32" transform="matrix(-1 0 0 1 44 11)" fill="white"/>
</clipPath>
</defs>
</svg>
