<svg width="28" height="28" viewBox="0 0 28 28" fill="none" xmlns="http://www.w3.org/2000/svg">
<g clip-path="url(#clip0)">
<path d="M23.7909 9.35662C23.7906 9.35662 23.7903 9.35662 23.79 9.35662H0.400889C0.179745 9.35639 0.00023412 9.53543 2.28894e-07 9.75658C2.28894e-07 9.75687 2.28894e-07 9.75722 2.28894e-07 9.75751V20.9843C-0.000233662 21.2054 0.17881 21.3849 0.399953 21.3852C0.400246 21.3852 0.400597 21.3852 0.400889 21.3852H16.3055C16.5268 21.3852 16.7064 21.2056 16.7064 20.9843C16.7064 20.7629 16.5268 20.5834 16.3055 20.5834H0.801778V10.1584H23.3891V11.1609C23.3888 11.382 23.5679 11.5615 23.789 11.5617C23.7893 11.5617 23.7897 11.5617 23.79 11.5617C24.0111 11.562 24.1906 11.3829 24.1909 11.1618C24.1909 11.1615 24.1909 11.1612 24.1909 11.1609V9.75751C24.1911 9.53637 24.012 9.35692 23.7909 9.35662Z" fill="black"/>
<path d="M21.0712 7.49532L2.35998 3.28529C2.25613 3.26208 2.14732 3.2809 2.05733 3.33768C1.96745 3.39493 1.9039 3.48538 1.88051 3.58935L0.944943 7.79938C0.896878 8.01561 1.03324 8.22985 1.24947 8.27792C1.4657 8.32598 1.67994 8.18962 1.72801 7.97339L2.5761 4.15583L20.8954 8.27745C20.9244 8.28417 20.954 8.28751 20.9838 8.28727C21.2051 8.28686 21.3843 8.10706 21.384 7.88568C21.3836 7.69851 21.2538 7.53654 21.0712 7.49532Z" fill="black"/>
<path d="M18.7992 5.1756L7.57247 0.497781C7.37734 0.416446 7.15251 0.500003 7.05791 0.689104L6.12234 2.56023C6.01668 2.75565 6.08942 2.99977 6.2849 3.10543C6.48031 3.21109 6.72444 3.13835 6.8301 2.94288C6.83425 2.93522 6.83817 2.92738 6.84179 2.91943V2.92036L7.60942 1.38417L18.4896 5.91744C18.6944 6.00293 18.9299 5.90621 19.0153 5.70132C19.1008 5.49655 19.0041 5.26114 18.7992 5.1756Z" fill="black"/>
<path d="M19.0827 11.2278H15.3699C15.1485 11.2278 14.969 11.4073 14.969 11.6286C14.969 11.85 15.1485 12.0295 15.3699 12.0295H19.0827C19.304 12.0295 19.4835 11.85 19.4835 11.6286C19.4835 11.4073 19.304 11.2278 19.0827 11.2278Z" fill="black"/>
<path d="M11.6276 11.2544C9.35411 11.2544 7.51111 13.0974 7.51111 15.3709C7.51345 17.6434 9.3551 19.485 11.6276 19.4874C13.9011 19.4874 15.7441 17.6444 15.7441 15.3709C15.7441 13.0974 13.9011 11.2544 11.6276 11.2544ZM11.6276 18.7389C9.76745 18.7389 8.25956 17.231 8.25956 15.3709C8.26161 13.5116 9.76833 12.0049 11.6276 12.0029C13.4877 12.0029 14.9956 13.5108 14.9956 15.3709C14.9956 17.231 13.4877 18.7389 11.6276 18.7389Z" fill="black"/>
<path d="M22.8545 12.5642C20.3752 12.5642 17.7089 13.1499 17.7089 14.4353V25.6621C17.7089 26.9475 20.3752 27.5332 22.8545 27.5332C25.3337 27.5332 28.0001 26.9475 28.0001 25.6621V14.4353C28.0001 13.1499 25.3337 12.5642 22.8545 12.5642ZM27.0645 25.6551C26.9939 25.9147 25.591 26.5976 22.8545 26.5976C20.1179 26.5976 18.7151 25.9147 18.6444 25.6621V24.9267C19.6399 25.4282 21.2841 25.6621 22.8545 25.6621C24.4248 25.6621 26.0695 25.4259 27.0645 24.9263V25.6551ZM27.0645 23.7839C26.9939 24.0436 25.591 24.7265 22.8545 24.7265C20.1179 24.7265 18.7151 24.0436 18.6444 23.791V23.0556C19.6399 23.5571 21.2841 23.791 22.8545 23.791C24.4248 23.791 26.0695 23.5547 27.0645 23.0551V23.7839ZM27.0645 21.9128C26.9939 22.1724 25.591 22.8554 22.8545 22.8554C20.1179 22.8554 18.7151 22.1724 18.6444 21.9198V21.1845C19.6399 21.6859 21.2841 21.9198 22.8545 21.9198C24.4248 21.9198 26.0695 21.6836 27.0645 21.184V21.9128ZM27.0645 20.0417C26.9939 20.3013 25.591 20.9843 22.8545 20.9843C20.1179 20.9843 18.7151 20.3013 18.6444 20.0487V19.3134C19.6399 19.8148 21.2841 20.0487 22.8545 20.0487C24.4248 20.0487 26.0695 19.8125 27.0645 19.3129V20.0417ZM27.0645 18.1706C26.9939 18.4302 25.591 19.1131 22.8545 19.1131C20.1179 19.1131 18.7151 18.4302 18.6444 18.1776V17.4422C19.6399 17.9414 21.2841 18.1776 22.8545 18.1776C24.4248 18.1776 26.0695 17.9414 27.0645 17.4418V18.1706ZM27.0645 16.2994C26.9939 16.5591 25.591 17.242 22.8545 17.242C20.1179 17.242 18.7151 16.5591 18.6444 16.3065V15.5711C19.6399 16.0702 21.2841 16.3065 22.8545 16.3065C24.4248 16.3065 26.0695 16.0702 27.0645 15.5706V16.2994ZM22.8545 15.3709C20.1221 15.3709 18.7197 14.6898 18.6444 14.4437V14.4409C18.7197 14.1804 20.1221 13.4998 22.8545 13.4998C25.5676 13.4998 26.9709 14.1706 27.0645 14.4353C26.9709 14.7001 25.5676 15.3709 22.8545 15.3709Z" fill="black"/>
<path d="M7.88546 18.7118H4.3495L2.67297 16.8781V13.8375L4.52445 12.0295H7.88546C8.10684 12.0295 8.28635 11.85 8.28635 11.6286C8.28635 11.4073 8.10684 11.2278 7.88546 11.2278H4.36166C4.25688 11.2275 4.15613 11.2683 4.081 11.3414L1.99142 13.3795C1.91335 13.4708 1.87055 13.587 1.87073 13.707V17.0339C1.87073 17.1339 1.90809 17.2303 1.97551 17.3042L3.87611 19.3831C3.95206 19.4662 4.05954 19.5136 4.17221 19.5136H7.88546C8.10684 19.5136 8.28635 19.3341 8.28635 19.1127C8.28635 18.8913 8.1069 18.7118 7.88546 18.7118Z" fill="black"/>
<path d="M11.8616 14.9031H11.3938C11.2483 14.9031 11.1599 14.8217 11.1599 14.7862C11.1599 14.7506 11.2483 14.6692 11.3938 14.6692H12.5633C12.8216 14.6692 13.0311 14.4598 13.0311 14.2014C13.0311 13.9431 12.8216 13.7337 12.5633 13.7337H12.0955C12.0955 13.4753 11.886 13.2659 11.6277 13.2659C11.3694 13.2659 11.1599 13.4753 11.1599 13.7337V13.7547C10.6411 13.828 10.248 14.2604 10.2244 14.7838C10.2579 15.3971 10.7803 15.8684 11.3938 15.8387H11.8616C12.0071 15.8387 12.0955 15.9201 12.0955 15.9556C12.0955 15.9912 12.0071 16.0726 11.8616 16.0726H10.6921C10.4338 16.0726 10.2244 16.282 10.2244 16.5403C10.2244 16.7987 10.4338 17.0081 10.6921 17.0081H11.1599C11.1599 17.2665 11.3694 17.4759 11.6277 17.4759C11.886 17.4759 12.0955 17.2665 12.0955 17.0081V16.9871C12.6143 16.9138 13.0074 16.4814 13.0311 15.958C12.9976 15.3446 12.4752 14.8734 11.8616 14.9031Z" fill="black"/>
</g>
<defs>
<clipPath id="clip0">
<rect width="28" height="28" fill="white"/>
</clipPath>
</defs>
</svg>
